# xmcd
#
# Track frame offsets:
#	150
#	19020
#	37188
#	55110
#	73082
#	87853
#	110295
#	124516
#	136712
#	156109
#	162675
#	182644
#	207456
#	217396
#	227923
#
# Disc length: 3401 seconds
#
# Revision: 1
# Processed by: cddbd v1.5.1PL0 Copyright (c) Steve Scherf et al.
# Submitted via: audiograbber 1.83.01
#
DISCID=d90d470f
DTITLE=Various Artist - Ultimate Soul Christmas - Disc 2
DYEAR=2004
DGENRE=Holidays
TTITLE0=Boyz II Men - Cold December Nights
TTITLE1=The Whispers - Santa Claus Is Coming To Town
TTITLE2=Gladys Knight and The Pips - Do You Hear What I Hear?
TTITLE3=Isaac Hayes - The Misltetoe and Me
TTITLE4=En Vogue - Snowy Nights
TTITLE5=The O'Jays - Have Yourself A Merry Little Christrmas
TTITLE6=Lou Rawls - What Are You Doing New Year's Eve
TTITLE7=Fats Domino - Please Come Home For Christmas
TTITLE8=CeCe Winans - Silver Bells
TTITLE9=Ella Fitzgerald - God Rest Ye Merry Gentlemen
TTITLE10=Alexander O'Neal - My Gift To you
TTITLE11=Candi Staton - Chrsitmas In My Heart
TTITLE12=Smokey Robinson and The Miracles - O Holy Night
TTITLE13=Nancy Wilson - That's What I Wanted For Christmas
TTITLE14=The Temptations - Silent Night
EXTD=
EXTT0=
EXTT1=
EXTT2=
EXTT3=
EXTT4=
EXTT5=
EXTT6=
EXTT7=
EXTT8=
EXTT9=
EXTT10=
EXTT11=
EXTT12=
EXTT13=
EXTT14=
PLAYORDER=
